<svg width="52" height="62" viewBox="0 0 52 62" fill="none" xmlns="http://www.w3.org/2000/svg">
<path d="M3.92663 23.225C2.72663 15.215 2.12413 11.2125 4.36663 8.605C6.61163 6 10.6616 6 18.7591 6H33.9241C42.0241 6 46.0741 6 48.3166 8.605C50.5591 11.2125 49.9591 15.215 48.7591 23.225L45.7591 43.225C44.8441 49.32 44.3866 52.365 42.2766 54.1825C40.1666 56 37.0866 56 30.9241 56H21.7591C15.5966 56 12.5166 56 10.4066 54.1825C8.29663 52.365 7.83913 49.32 6.92663 43.225L3.92663 23.225Z" stroke="#4CAF50" stroke-width="2.5"/>
<path d="M16.3418 16L5.0918 28.5L23.8418 48.5M31.3418 16L6.3418 41M46.3418 16L13.8418 48.5M28.8418 48.5L47.5918 28.5L36.3418 16M21.3418 16L46.3418 41M6.3418 16L38.8418 48.5" stroke="#4CAF50" stroke-width="2.5" stroke-linejoin="round"/>
<path d="M48.8418 16H3.8418M43.8418 48.5H8.8418" stroke="#4CAF50" stroke-width="2.5" stroke-linecap="round"/>
</svg>
