<svg width="55" height="62" viewBox="0 0 55 62" fill="none" xmlns="http://www.w3.org/2000/svg">
<path d="M27.0859 56C40.8934 56 52.0859 44.8075 52.0859 31C52.0859 17.1925 40.8934 6 27.0859 6C13.2784 6 2.08594 17.1925 2.08594 31C2.08594 35.5525 3.30344 39.825 5.43094 43.5L3.33594 54.75L14.5859 52.655C18.3848 54.8526 22.6972 56.0066 27.0859 56Z" stroke="#4CAF50" stroke-width="3" stroke-linecap="round" stroke-linejoin="round"/>
<path d="M41.6172 32.6754C41.9901 32.6754 42.3478 32.4304 42.6115 31.9944C42.8753 31.5584 43.0234 30.967 43.0234 30.3504C43.0234 29.7338 42.8753 29.1424 42.6115 28.7064C42.3478 28.2703 41.9901 28.0254 41.6172 28.0254C41.2442 28.0254 40.8865 28.2703 40.6228 28.7064C40.3591 29.1424 40.2109 29.7338 40.2109 30.3504C40.2109 30.967 40.3591 31.5584 40.6228 31.9944C40.8865 32.4304 41.2442 32.6754 41.6172 32.6754ZM27.5547 32.6754C27.9276 32.6754 28.2853 32.4304 28.5491 31.9944C28.8128 31.5584 28.9609 30.967 28.9609 30.3504C28.9609 29.7338 28.8128 29.1424 28.5491 28.7064C28.2853 28.2703 27.9276 28.0254 27.5547 28.0254C27.1817 28.0254 26.824 28.2703 26.5603 28.7064C26.2966 29.1424 26.1484 29.7338 26.1484 30.3504C26.1484 30.967 26.2966 31.5584 26.5603 31.9944C26.824 32.4304 27.1817 32.6754 27.5547 32.6754ZM13.4922 32.6754C13.8651 32.6754 14.2228 32.4304 14.4866 31.9944C14.7503 31.5584 14.8984 30.967 14.8984 30.3504C14.8984 29.7338 14.7503 29.1424 14.4866 28.7064C14.2228 28.2703 13.8651 28.0254 13.4922 28.0254C13.1192 28.0254 12.7615 28.2703 12.4978 28.7064C12.2341 29.1424 12.0859 29.7338 12.0859 30.3504C12.0859 30.967 12.2341 31.5584 12.4978 31.9944C12.7615 32.4304 13.1192 32.6754 13.4922 32.6754Z" fill="#4CAF50" stroke="#4CAF50" stroke-linecap="round" stroke-linejoin="round"/>
</svg>
