<svg width="79" height="62" viewBox="0 0 79 62" fill="none" xmlns="http://www.w3.org/2000/svg">
<path d="M60.3333 26.8333H68.6667C70.8768 26.8333 72.9964 27.7113 74.5592 29.2741C76.122 30.8369 77 32.9565 77 35.1667V43.5C77 44.6051 76.561 45.6649 75.7796 46.4463C74.9982 47.2277 73.9384 47.6667 72.8333 47.6667H66.5833M60.3333 26.8333H33.25M60.3333 26.8333L50.2625 10.0458C49.5221 8.81186 48.4748 7.79065 47.2225 7.08164C45.9702 6.37263 44.5557 5.99999 43.1167 6H33.25M66.5833 47.6667C66.5833 49.8768 65.7054 51.9964 64.1426 53.5592C62.5797 55.122 60.4601 56 58.25 56C56.0399 56 53.9202 55.122 52.3574 53.5592C50.7946 51.9964 49.9167 49.8768 49.9167 47.6667M66.5833 47.6667C66.5833 45.4565 65.7054 43.3369 64.1426 41.7741C62.5797 40.2113 60.4601 39.3333 58.25 39.3333C56.0399 39.3333 53.9202 40.2113 52.3574 41.7741C50.7946 43.3369 49.9167 45.4565 49.9167 47.6667M33.25 26.8333V6M33.25 26.8333H10.3333M33.25 6H21.3333C19.4061 5.99924 17.5382 6.66647 16.0477 7.88808C14.5571 9.1097 13.5361 10.8102 13.1583 12.7L10.3333 26.8333M10.3333 26.8333C8.1232 26.8333 6.00358 27.7113 4.44078 29.2741C2.87797 30.8369 2 32.9565 2 35.1667V43.5C2 44.6051 2.43899 45.6649 3.22039 46.4463C4.00179 47.2277 5.0616 47.6667 6.16667 47.6667H12.4167M12.4167 47.6667C12.4167 49.8768 13.2946 51.9964 14.8574 53.5592C16.4202 55.122 18.5399 56 20.75 56C22.9601 56 25.0798 55.122 26.6426 53.5592C28.2054 51.9964 29.0833 49.8768 29.0833 47.6667M12.4167 47.6667C12.4167 45.4565 13.2946 43.3369 14.8574 41.7741C16.4202 40.2113 18.5399 39.3333 20.75 39.3333C22.9601 39.3333 25.0798 40.2113 26.6426 41.7741C28.2054 43.3369 29.0833 45.4565 29.0833 47.6667M29.0833 47.6667H49.9167" stroke="#4CAF50" stroke-width="3" stroke-linecap="round" stroke-linejoin="round"/>
</svg>
