<svg width="74" height="62" viewBox="0 0 74 62" fill="none" xmlns="http://www.w3.org/2000/svg">
<path d="M27.5 29.9345C30.2486 29.94 32.9933 29.7282 35.7083 29.3012V38.5492C34.2171 38.8002 32.7145 38.9776 31.2058 39.0807L31.2057 39.0807L31.1194 39.0866L31.1193 39.0866C29.9537 39.1677 28.7473 39.2083 27.5 39.2083C25.8758 39.2083 24.317 39.1341 22.8294 39.0035L22.8294 39.003H22.8185H22.7438C21.5482 38.8936 20.3976 38.7454 19.2917 38.5582V29.3012C22.0067 29.7282 24.7514 29.94 27.5 29.9345ZM27.5 29.9345C27.4999 29.9345 27.4998 29.9345 27.4998 29.9345L27.5 29.8095L27.5002 29.9345C27.5002 29.9345 27.5001 29.9345 27.5 29.9345ZM46.5476 44.2202C43.7987 44.2233 41.0541 44.0085 38.3393 43.5781V52.8342C43.7761 53.714 49.3191 53.714 54.756 52.8342V43.5869C52.0409 44.0139 49.2962 44.2257 46.5476 44.2202ZM46.5476 44.2202C46.5475 44.2202 46.5474 44.2202 46.5474 44.2202L46.5476 44.0952L46.5478 44.2202C46.5477 44.2202 46.5476 44.2202 46.5476 44.2202ZM46.5476 41.5893H46.5474C43.7972 41.5934 41.0515 41.3669 38.3393 40.9122V40.7045C42.5647 39.7619 46.1185 38.2768 48.6247 36.4189C51.1495 34.5471 52.625 32.285 52.625 29.8095V23.1558C57.3496 23.7319 61.4477 24.9669 64.3692 26.5694C67.3289 28.1928 69.0417 30.1697 69.0417 32.1905C69.0417 33.2972 68.4946 34.4378 67.4449 35.5319C66.3955 36.6256 64.8512 37.6642 62.879 38.563C58.935 40.3602 53.2986 41.5893 46.5476 41.5893ZM52.625 20.5045V17.9048C52.625 14.4921 49.8209 11.484 45.3104 9.33617C40.792 7.1846 34.5227 5.875 27.5 5.875C20.4773 5.875 14.208 7.1846 9.68956 9.33617C5.1791 11.484 2.375 14.4921 2.375 17.9048V29.8095C2.375 32.7219 4.41797 35.3385 7.81445 37.3747C11.1916 39.3993 15.9309 40.8665 21.4226 41.4955V44.0952C21.4226 47.5079 24.2267 50.516 28.7372 52.6638C33.2556 54.8154 39.5249 56.125 46.5476 56.125C53.5703 56.125 59.8396 54.8154 64.3581 52.6638C68.8685 50.516 71.6726 47.5079 71.6726 44.0952V32.1905C71.6726 29.3177 69.6851 26.7077 66.3152 24.6647C62.9644 22.6333 58.2241 21.1467 52.625 20.5045ZM38.3393 28.7997C43.4047 27.6692 47.5055 25.7591 49.9941 23.3589V29.8095C49.9941 31.3688 48.9054 32.9954 46.8662 34.4568C44.8595 35.8949 41.9537 37.1562 38.3393 38.0176V28.7997ZM27.5 8.50595C34.251 8.50595 39.8874 9.73502 43.8314 11.5323C45.8036 12.431 47.3479 13.4697 48.3973 14.5633C49.447 15.6574 49.9941 16.798 49.9941 17.9048C49.9941 19.0115 49.447 20.1521 48.3973 21.2462C47.3479 22.3399 45.8036 23.3785 43.8314 24.2773C39.8874 26.0745 34.251 27.3036 27.5 27.3036C20.749 27.3036 15.1126 26.0745 11.1687 24.2773C9.19641 23.3785 7.65215 22.3399 6.60275 21.2462C5.553 20.1521 5.00595 19.0115 5.00595 17.9048C5.00595 16.798 5.553 15.6574 6.60275 14.5633C7.65215 13.4697 9.19641 12.431 11.1687 11.5323C15.1126 9.73502 20.749 8.50595 27.5 8.50595ZM5.00595 29.8095V23.3589C7.4945 25.7591 11.5954 27.6697 16.6607 28.8143V38.0322C13.0463 37.1636 10.1406 35.8986 8.13389 34.4587C6.09463 32.9954 5.00595 31.3688 5.00595 29.8095ZM24.0536 44.0952V41.7287C25.1777 41.8006 26.3292 41.8393 27.5 41.8393C28.7082 41.8393 29.8868 41.7981 31.0533 41.7246C32.5738 42.2766 34.1288 42.7283 35.7083 43.0768V52.3034C32.0939 51.442 29.1881 50.1806 27.1814 48.7425C25.1422 47.2811 24.0536 45.6546 24.0536 44.0952ZM69.0417 44.0952C69.0417 45.6546 67.953 47.2811 65.9138 48.7425C63.9071 50.1806 61.0013 51.442 57.3869 52.3034V43.0854C62.4521 41.955 66.553 40.0448 69.0417 37.631V44.0952Z" fill="#4CAF50" stroke="#4CAF50" stroke-width="0.25"/>
</svg>