<svg width="67" height="62" viewBox="0 0 67 62" fill="none" xmlns="http://www.w3.org/2000/svg">
<path d="M2.08594 18.5L33.3331 35.1667L64.5803 18.5M6.54982 6H60.1164C61.3003 6 62.4357 6.43899 63.2729 7.22039C64.11 8.00179 64.5803 9.0616 64.5803 10.1667V51.8333C64.5803 52.9384 64.11 53.9982 63.2729 54.7796C62.4357 55.561 61.3003 56 60.1164 56H6.54982C5.36593 56 4.23052 55.561 3.39338 54.7796C2.55624 53.9982 2.08594 52.9384 2.08594 51.8333V10.1667C2.08594 9.0616 2.55624 8.00179 3.39338 7.22039C4.23052 6.43899 5.36593 6 6.54982 6Z" stroke="#4CAF50" stroke-width="3" stroke-linecap="round"/>
</svg>
