<svg width="42" height="62" viewBox="0 0 42 62" fill="none" xmlns="http://www.w3.org/2000/svg">
<path d="M33.25 31H37.625C38.1223 31 38.5992 31.1975 38.9508 31.5492C39.3025 31.9008 39.5 32.3777 39.5 32.875V54.125C39.5 54.6223 39.3025 55.0992 38.9508 55.4508C38.5992 55.8025 38.1223 56 37.625 56H3.875C3.37772 56 2.90081 55.8025 2.54917 55.4508C2.19754 55.0992 2 54.6223 2 54.125V32.875C2 32.3777 2.19754 31.9008 2.54917 31.5492C2.90081 31.1975 3.37772 31 3.875 31H8.25M33.25 31V18.5C33.25 14.3344 30.75 6 20.75 6C10.75 6 8.25 14.3344 8.25 18.5V31M33.25 31H8.25" stroke="#4CAF50" stroke-width="3" stroke-linecap="round" stroke-linejoin="round"/>
<path d="M20.7277 38.5C20.0012 38.5055 19.2974 38.7541 18.7286 39.2063C18.1598 39.6584 17.7588 40.288 17.5895 40.9946C17.4202 41.7012 17.4924 42.4441 17.7946 43.1049C18.0968 43.7657 18.6115 44.3062 19.2568 44.6403V48.5H21.9558V44.7618C22.6526 44.4762 23.2287 43.9577 23.5859 43.2948C23.943 42.6318 24.059 41.8654 23.9141 41.1264C23.7691 40.3875 23.3723 39.7217 22.7912 39.2427C22.2101 38.7637 21.4808 38.5012 20.7277 38.5Z" fill="#4CAF50"/>
</svg>
