<svg width="51" height="62" viewBox="0 0 51 62" fill="none" xmlns="http://www.w3.org/2000/svg">
<path d="M40.834 9.51742L40.8332 9.51702L40.6415 9.42396L40.5869 9.53641L40.6415 9.42396C37.2398 7.77259 31.776 5.875 25.7593 5.875C19.6146 5.875 14.0034 7.85469 10.5838 9.52823C10.2433 9.6943 9.9252 9.85893 9.62956 10.0179C9.03204 10.3362 8.53023 10.6367 8.13389 10.8958L8.02737 10.9654L8.0989 11.0707L13.14 18.4881C10.175 21.6227 7.4023 25.5173 5.42036 29.6018C3.42358 33.717 2.2251 38.0339 2.44977 41.9653C2.67474 45.9023 4.32737 49.4499 8.02267 52.0089C11.7123 54.564 17.426 56.125 25.7593 56.125C34.093 56.125 39.7917 54.535 43.4601 51.9434C47.134 49.3479 48.7584 45.7568 48.9588 41.7916C49.159 37.8316 47.9395 33.5005 45.934 29.4069C43.9441 25.345 41.1761 21.5082 38.2366 18.4871L43.3098 11.071L43.3811 10.9666L43.276 10.8964C42.69 10.5053 41.86 10.0249 40.834 9.51742ZM26.1801 14.9555L26.1802 14.9555C30.4509 13.7191 34.8808 12.8359 38.6353 12.5406L34.6979 18.2968C29.0288 20.3012 22.3344 20.3012 16.6667 18.2942L14.208 14.674C14.9036 14.8476 15.6044 14.9999 16.3093 15.1306L16.3095 15.1306C19.5354 15.7256 23.0293 15.8658 26.1801 14.9555ZM5.47129 41.7931L5.47129 41.793C5.28542 38.5576 6.27692 34.7694 8.14252 30.9233C9.90882 27.2835 12.3692 23.7774 15.0162 20.9122C21.6913 23.4664 29.6881 23.4663 36.3631 20.9091C39.1207 23.8281 41.4291 27.1409 43.2125 30.7392C45.0848 34.5587 46.0986 38.3665 45.9334 41.6383C45.774 44.7896 44.5372 47.4733 41.7107 49.471C38.758 51.5573 33.7718 53.097 25.7579 53.097C17.7354 53.097 12.7251 51.5836 9.74444 49.5203C6.89714 47.5471 5.64852 44.9007 5.47129 41.7931ZM16.835 12.2755L16.8577 12.1526C15.8036 11.9574 14.7625 11.7064 13.7587 11.4184C16.8541 10.1425 21.158 8.90301 25.7579 8.90301C28.6695 8.90301 31.4531 9.40014 33.88 10.0885C30.9968 10.5744 28.1442 11.2279 25.3368 12.0458C22.8067 12.7786 19.8336 12.7007 16.8576 12.1526L16.835 12.2755Z" fill="#4CAF50" stroke="#4CAF50" stroke-width="0.25"/>
<path d="M30.4774 39.4811H30.4015L30.3665 39.5485C29.9967 40.2606 29.4853 40.7984 28.832 41.166C28.1916 41.5201 27.4386 41.6994 26.569 41.6994C25.5612 41.6994 24.6758 41.4651 23.9089 40.9995C23.2096 40.5671 22.6632 39.9694 22.2695 39.203H26.569H26.694V39.078V37.4301V37.3051H26.569H21.7136C21.6818 37.048 21.6658 36.7799 21.6658 36.5005C21.6658 36.2211 21.6818 35.9529 21.7136 35.6959H26.569H26.694V35.5709V33.923V33.798H26.569H22.271C22.6644 33.0455 23.2103 32.4546 23.9089 32.0226C24.6758 31.5571 25.5612 31.3227 26.569 31.3227C27.438 31.3227 28.1905 31.5087 28.8307 31.8765L28.8306 31.8765L28.8334 31.878C29.4858 32.2314 29.9968 32.7617 30.3665 33.4736L30.4015 33.541H30.4774H33.3718H33.5547L33.4882 33.3706C32.9297 31.9385 32.0256 30.8322 30.7765 30.0567C29.5437 29.2685 28.1399 28.8755 26.569 28.8755C24.8969 28.8755 23.4069 29.3333 22.1031 30.2501C20.8237 31.136 19.9228 32.3197 19.4025 33.798H17.5479H17.4229V33.923V35.5709V35.6959H17.5479H18.9773C18.9552 36.0288 18.944 36.2973 18.944 36.5005C18.944 36.7037 18.9552 36.9721 18.9773 37.3051H17.5479H17.4229V37.4301V39.078V39.203H17.5479H19.4025C19.9228 40.6815 20.8236 41.8721 22.1027 42.7717L22.1035 42.7723C23.4073 43.6749 24.8972 44.1255 26.569 44.1255C28.1536 44.1255 29.5644 43.7397 30.7974 42.9655C32.0327 42.1898 32.9298 41.0835 33.4882 39.6515L33.5547 39.4811H33.3718H30.4774Z" fill="#4CAF50" stroke="#4CAF50" stroke-width="0.25"/>
</svg>
