<svg width="55" height="62" viewBox="0 0 55 62" fill="none" xmlns="http://www.w3.org/2000/svg">
<path d="M52.8296 56L36.1629 39.3333M2.82959 25.4444C2.82959 27.9979 3.33254 30.5264 4.30971 32.8855C5.28688 35.2446 6.71915 37.3882 8.52474 39.1937C10.3303 40.9993 12.4739 42.4316 14.833 43.4088C17.1921 44.3859 19.7206 44.8889 22.274 44.8889C24.8275 44.8889 27.356 44.3859 29.7151 43.4088C32.0742 42.4316 34.2177 40.9993 36.0233 39.1937C37.8289 37.3882 39.2612 35.2446 40.2384 32.8855C41.2155 30.5264 41.7185 27.9979 41.7185 25.4444C41.7185 22.891 41.2155 20.3625 40.2384 18.0034C39.2612 15.6443 37.8289 13.5007 36.0233 11.6951C34.2177 9.88956 32.0742 8.45729 29.7151 7.48012C27.356 6.50294 24.8275 6 22.274 6C19.7206 6 17.1921 6.50294 14.833 7.48012C12.4739 8.45729 10.3303 9.88956 8.52474 11.6951C6.71915 13.5007 5.28688 15.6443 4.30971 18.0034C3.33254 20.3625 2.82959 22.891 2.82959 25.4444Z" stroke="#4CAF50" stroke-width="3" stroke-linecap="round" stroke-linejoin="round"/>
</svg>
