<svg width="55" height="62" viewBox="0 0 55 62" fill="none" xmlns="http://www.w3.org/2000/svg">
<mask id="path-1-outside-1_338_1301" maskUnits="userSpaceOnUse" x="1.58057" y="5" width="52" height="52" fill="black">
<rect fill="white" x="1.58057" y="5" width="52" height="52"/>
<path d="M41.8025 32.5262L30.4739 28.3589C30.4168 28.3371 30.3648 28.3036 30.3214 28.2605C30.2779 28.2175 30.244 28.1658 30.2217 28.1088L26.0543 16.7781C25.8383 16.1923 25.4479 15.6869 24.9357 15.3299C24.4235 14.9729 23.8142 14.7815 23.1898 14.7815C22.5655 14.7815 21.9562 14.9729 21.444 15.3299C20.9318 15.6869 20.5414 16.1923 20.3253 16.7781L16.158 28.1067C16.1362 28.1638 16.1027 28.2158 16.0596 28.2592C16.0166 28.3026 15.9649 28.3366 15.908 28.3589L4.57718 32.5262C3.99142 32.7423 3.48598 33.1327 3.12897 33.6449C2.77197 34.1571 2.58057 34.7664 2.58057 35.3907C2.58057 36.0151 2.77197 36.6244 3.12897 37.1366C3.48598 37.6488 3.99142 38.0392 4.57718 38.2552L15.9058 42.4226C15.9629 42.4444 16.0149 42.4779 16.0583 42.5209C16.1018 42.564 16.1357 42.6156 16.158 42.6726L20.3253 54.0034C20.5414 54.5891 20.9318 55.0946 21.444 55.4516C21.9562 55.8086 22.5655 56 23.1898 56C23.8142 56 24.4235 55.8086 24.9357 55.4516C25.4479 55.0946 25.8383 54.5891 26.0543 54.0034L30.2217 42.6748C30.2435 42.6176 30.277 42.5657 30.32 42.5222C30.3631 42.4788 30.4148 42.4449 30.4717 42.4226L41.8025 38.2552C42.3883 38.0392 42.8937 37.6488 43.2507 37.1366C43.6077 36.6244 43.7991 36.0151 43.7991 35.3907C43.7991 34.7664 43.6077 34.1571 43.2507 33.6449C42.8937 33.1327 42.3883 32.7423 41.8025 32.5262ZM40.8923 35.7855L29.5615 39.9529C29.1468 40.1061 28.7703 40.3474 28.4579 40.6602C28.1456 40.9729 27.9047 41.3497 27.752 41.7646L23.5846 53.0932C23.5547 53.1737 23.5009 53.2433 23.4303 53.2923C23.3597 53.3414 23.2758 53.3677 23.1898 53.3677C23.1039 53.3677 23.02 53.3414 22.9494 53.2923C22.8788 53.2433 22.825 53.1737 22.795 53.0932L18.6277 41.7624C18.4739 41.3484 18.2327 40.9724 17.9204 40.6601C17.6082 40.3479 17.2322 40.1066 16.8182 39.9529L5.48961 35.7855C5.40901 35.7556 5.33951 35.7017 5.29042 35.6312C5.24134 35.5606 5.21503 35.4767 5.21503 35.3907C5.21503 35.3048 5.24134 35.2209 5.29042 35.1503C5.33951 35.0797 5.40901 35.0258 5.48961 34.9959L16.8204 30.8286C17.235 30.6754 17.6115 30.4341 17.9239 30.1213C18.2363 29.8085 18.4772 29.4317 18.6299 29.0169L22.7972 17.6883C22.8271 17.6077 22.881 17.5382 22.9516 17.4891C23.0222 17.44 23.1061 17.4137 23.192 17.4137C23.278 17.4137 23.3619 17.44 23.4325 17.4891C23.5031 17.5382 23.5569 17.6077 23.5868 17.6883L27.7542 29.0191C27.9074 29.4337 28.1487 29.8102 28.4615 30.1226C28.7742 30.435 29.151 30.6759 29.5659 30.8286L40.8945 34.9959C40.9751 35.0258 41.0446 35.0797 41.0936 35.1503C41.1427 35.2209 41.169 35.3048 41.169 35.3907C41.169 35.4767 41.1427 35.5606 41.0936 35.6312C41.0446 35.7017 40.9751 35.7556 40.8945 35.7855H40.8923ZM30.6406 12.58C30.6406 12.231 30.7793 11.8963 31.0261 11.6495C31.2729 11.4027 31.6076 11.264 31.9566 11.264H35.9046V7.316C35.9046 6.96698 36.0433 6.63225 36.2901 6.38545C36.5369 6.13865 36.8716 6 37.2206 6C37.5696 6 37.9044 6.13865 38.1512 6.38545C38.398 6.63225 38.5366 6.96698 38.5366 7.316V11.264H42.4846C42.8337 11.264 43.1684 11.4027 43.4152 11.6495C43.662 11.8963 43.8006 12.231 43.8006 12.58C43.8006 12.929 43.662 13.2638 43.4152 13.5106C43.1684 13.7574 42.8337 13.896 42.4846 13.896H38.5366V17.844C38.5366 18.193 38.398 18.5278 38.1512 18.7746C37.9044 19.0214 37.5696 19.16 37.2206 19.16C36.8716 19.16 36.5369 19.0214 36.2901 18.7746C36.0433 18.5278 35.9046 18.193 35.9046 17.844V13.896H31.9566C31.6076 13.896 31.2729 13.7574 31.0261 13.5106C30.7793 13.2638 30.6406 12.929 30.6406 12.58ZM52.574 23.108C52.574 23.4571 52.4353 23.7918 52.1885 24.0386C51.9417 24.2854 51.607 24.424 51.258 24.424H49.0646V26.6174C49.0646 26.9664 48.926 27.3011 48.6792 27.5479C48.4324 27.7947 48.0977 27.9334 47.7486 27.9334C47.3996 27.9334 47.0649 27.7947 46.8181 27.5479C46.5713 27.3011 46.4326 26.9664 46.4326 26.6174V24.424H44.2393C43.8903 24.424 43.5555 24.2854 43.3087 24.0386C43.062 23.7918 42.9233 23.4571 42.9233 23.108C42.9233 22.759 43.062 22.4243 43.3087 22.1775C43.5555 21.9307 43.8903 21.792 44.2393 21.792H46.4326V19.5987C46.4326 19.2497 46.5713 18.9149 46.8181 18.6681C47.0649 18.4213 47.3996 18.2827 47.7486 18.2827C48.0977 18.2827 48.4324 18.4213 48.6792 18.6681C48.926 18.9149 49.0646 19.2497 49.0646 19.5987V21.792H51.258C51.607 21.792 51.9417 21.9307 52.1885 22.1775C52.4353 22.4243 52.574 22.759 52.574 23.108Z"/>
</mask>
<path d="M41.8025 32.5262L30.4739 28.3589C30.4168 28.3371 30.3648 28.3036 30.3214 28.2605C30.2779 28.2175 30.244 28.1658 30.2217 28.1088L26.0543 16.7781C25.8383 16.1923 25.4479 15.6869 24.9357 15.3299C24.4235 14.9729 23.8142 14.7815 23.1898 14.7815C22.5655 14.7815 21.9562 14.9729 21.444 15.3299C20.9318 15.6869 20.5414 16.1923 20.3253 16.7781L16.158 28.1067C16.1362 28.1638 16.1027 28.2158 16.0596 28.2592C16.0166 28.3026 15.9649 28.3366 15.908 28.3589L4.57718 32.5262C3.99142 32.7423 3.48598 33.1327 3.12897 33.6449C2.77197 34.1571 2.58057 34.7664 2.58057 35.3907C2.58057 36.0151 2.77197 36.6244 3.12897 37.1366C3.48598 37.6488 3.99142 38.0392 4.57718 38.2552L15.9058 42.4226C15.9629 42.4444 16.0149 42.4779 16.0583 42.5209C16.1018 42.564 16.1357 42.6156 16.158 42.6726L20.3253 54.0034C20.5414 54.5891 20.9318 55.0946 21.444 55.4516C21.9562 55.8086 22.5655 56 23.1898 56C23.8142 56 24.4235 55.8086 24.9357 55.4516C25.4479 55.0946 25.8383 54.5891 26.0543 54.0034L30.2217 42.6748C30.2435 42.6176 30.277 42.5657 30.32 42.5222C30.3631 42.4788 30.4148 42.4449 30.4717 42.4226L41.8025 38.2552C42.3883 38.0392 42.8937 37.6488 43.2507 37.1366C43.6077 36.6244 43.7991 36.0151 43.7991 35.3907C43.7991 34.7664 43.6077 34.1571 43.2507 33.6449C42.8937 33.1327 42.3883 32.7423 41.8025 32.5262ZM40.8923 35.7855L29.5615 39.9529C29.1468 40.1061 28.7703 40.3474 28.4579 40.6602C28.1456 40.9729 27.9047 41.3497 27.752 41.7646L23.5846 53.0932C23.5547 53.1737 23.5009 53.2433 23.4303 53.2923C23.3597 53.3414 23.2758 53.3677 23.1898 53.3677C23.1039 53.3677 23.02 53.3414 22.9494 53.2923C22.8788 53.2433 22.825 53.1737 22.795 53.0932L18.6277 41.7624C18.4739 41.3484 18.2327 40.9724 17.9204 40.6601C17.6082 40.3479 17.2322 40.1066 16.8182 39.9529L5.48961 35.7855C5.40901 35.7556 5.33951 35.7017 5.29042 35.6312C5.24134 35.5606 5.21503 35.4767 5.21503 35.3907C5.21503 35.3048 5.24134 35.2209 5.29042 35.1503C5.33951 35.0797 5.40901 35.0258 5.48961 34.9959L16.8204 30.8286C17.235 30.6754 17.6115 30.4341 17.9239 30.1213C18.2363 29.8085 18.4772 29.4317 18.6299 29.0169L22.7972 17.6883C22.8271 17.6077 22.881 17.5382 22.9516 17.4891C23.0222 17.44 23.1061 17.4137 23.192 17.4137C23.278 17.4137 23.3619 17.44 23.4325 17.4891C23.5031 17.5382 23.5569 17.6077 23.5868 17.6883L27.7542 29.0191C27.9074 29.4337 28.1487 29.8102 28.4615 30.1226C28.7742 30.435 29.151 30.6759 29.5659 30.8286L40.8945 34.9959C40.9751 35.0258 41.0446 35.0797 41.0936 35.1503C41.1427 35.2209 41.169 35.3048 41.169 35.3907C41.169 35.4767 41.1427 35.5606 41.0936 35.6312C41.0446 35.7017 40.9751 35.7556 40.8945 35.7855H40.8923ZM30.6406 12.58C30.6406 12.231 30.7793 11.8963 31.0261 11.6495C31.2729 11.4027 31.6076 11.264 31.9566 11.264H35.9046V7.316C35.9046 6.96698 36.0433 6.63225 36.2901 6.38545C36.5369 6.13865 36.8716 6 37.2206 6C37.5696 6 37.9044 6.13865 38.1512 6.38545C38.398 6.63225 38.5366 6.96698 38.5366 7.316V11.264H42.4846C42.8337 11.264 43.1684 11.4027 43.4152 11.6495C43.662 11.8963 43.8006 12.231 43.8006 12.58C43.8006 12.929 43.662 13.2638 43.4152 13.5106C43.1684 13.7574 42.8337 13.896 42.4846 13.896H38.5366V17.844C38.5366 18.193 38.398 18.5278 38.1512 18.7746C37.9044 19.0214 37.5696 19.16 37.2206 19.16C36.8716 19.16 36.5369 19.0214 36.2901 18.7746C36.0433 18.5278 35.9046 18.193 35.9046 17.844V13.896H31.9566C31.6076 13.896 31.2729 13.7574 31.0261 13.5106C30.7793 13.2638 30.6406 12.929 30.6406 12.58ZM52.574 23.108C52.574 23.4571 52.4353 23.7918 52.1885 24.0386C51.9417 24.2854 51.607 24.424 51.258 24.424H49.0646V26.6174C49.0646 26.9664 48.926 27.3011 48.6792 27.5479C48.4324 27.7947 48.0977 27.9334 47.7486 27.9334C47.3996 27.9334 47.0649 27.7947 46.8181 27.5479C46.5713 27.3011 46.4326 26.9664 46.4326 26.6174V24.424H44.2393C43.8903 24.424 43.5555 24.2854 43.3087 24.0386C43.062 23.7918 42.9233 23.4571 42.9233 23.108C42.9233 22.759 43.062 22.4243 43.3087 22.1775C43.5555 21.9307 43.8903 21.792 44.2393 21.792H46.4326V19.5987C46.4326 19.2497 46.5713 18.9149 46.8181 18.6681C47.0649 18.4213 47.3996 18.2827 47.7486 18.2827C48.0977 18.2827 48.4324 18.4213 48.6792 18.6681C48.926 18.9149 49.0646 19.2497 49.0646 19.5987V21.792H51.258C51.607 21.792 51.9417 21.9307 52.1885 22.1775C52.4353 22.4243 52.574 22.759 52.574 23.108Z" fill="#4CAF50"/>
<path d="M41.8025 32.5262L30.4739 28.3589C30.4168 28.3371 30.3648 28.3036 30.3214 28.2605C30.2779 28.2175 30.244 28.1658 30.2217 28.1088L26.0543 16.7781C25.8383 16.1923 25.4479 15.6869 24.9357 15.3299C24.4235 14.9729 23.8142 14.7815 23.1898 14.7815C22.5655 14.7815 21.9562 14.9729 21.444 15.3299C20.9318 15.6869 20.5414 16.1923 20.3253 16.7781L16.158 28.1067C16.1362 28.1638 16.1027 28.2158 16.0596 28.2592C16.0166 28.3026 15.9649 28.3366 15.908 28.3589L4.57718 32.5262C3.99142 32.7423 3.48598 33.1327 3.12897 33.6449C2.77197 34.1571 2.58057 34.7664 2.58057 35.3907C2.58057 36.0151 2.77197 36.6244 3.12897 37.1366C3.48598 37.6488 3.99142 38.0392 4.57718 38.2552L15.9058 42.4226C15.9629 42.4444 16.0149 42.4779 16.0583 42.5209C16.1018 42.564 16.1357 42.6156 16.158 42.6726L20.3253 54.0034C20.5414 54.5891 20.9318 55.0946 21.444 55.4516C21.9562 55.8086 22.5655 56 23.1898 56C23.8142 56 24.4235 55.8086 24.9357 55.4516C25.4479 55.0946 25.8383 54.5891 26.0543 54.0034L30.2217 42.6748C30.2435 42.6176 30.277 42.5657 30.32 42.5222C30.3631 42.4788 30.4148 42.4449 30.4717 42.4226L41.8025 38.2552C42.3883 38.0392 42.8937 37.6488 43.2507 37.1366C43.6077 36.6244 43.7991 36.0151 43.7991 35.3907C43.7991 34.7664 43.6077 34.1571 43.2507 33.6449C42.8937 33.1327 42.3883 32.7423 41.8025 32.5262ZM40.8923 35.7855L29.5615 39.9529C29.1468 40.1061 28.7703 40.3474 28.4579 40.6602C28.1456 40.9729 27.9047 41.3497 27.752 41.7646L23.5846 53.0932C23.5547 53.1737 23.5009 53.2433 23.4303 53.2923C23.3597 53.3414 23.2758 53.3677 23.1898 53.3677C23.1039 53.3677 23.02 53.3414 22.9494 53.2923C22.8788 53.2433 22.825 53.1737 22.795 53.0932L18.6277 41.7624C18.4739 41.3484 18.2327 40.9724 17.9204 40.6601C17.6082 40.3479 17.2322 40.1066 16.8182 39.9529L5.48961 35.7855C5.40901 35.7556 5.33951 35.7017 5.29042 35.6312C5.24134 35.5606 5.21503 35.4767 5.21503 35.3907C5.21503 35.3048 5.24134 35.2209 5.29042 35.1503C5.33951 35.0797 5.40901 35.0258 5.48961 34.9959L16.8204 30.8286C17.235 30.6754 17.6115 30.4341 17.9239 30.1213C18.2363 29.8085 18.4772 29.4317 18.6299 29.0169L22.7972 17.6883C22.8271 17.6077 22.881 17.5382 22.9516 17.4891C23.0222 17.44 23.1061 17.4137 23.192 17.4137C23.278 17.4137 23.3619 17.44 23.4325 17.4891C23.5031 17.5382 23.5569 17.6077 23.5868 17.6883L27.7542 29.0191C27.9074 29.4337 28.1487 29.8102 28.4615 30.1226C28.7742 30.435 29.151 30.6759 29.5659 30.8286L40.8945 34.9959C40.9751 35.0258 41.0446 35.0797 41.0936 35.1503C41.1427 35.2209 41.169 35.3048 41.169 35.3907C41.169 35.4767 41.1427 35.5606 41.0936 35.6312C41.0446 35.7017 40.9751 35.7556 40.8945 35.7855H40.8923ZM30.6406 12.58C30.6406 12.231 30.7793 11.8963 31.0261 11.6495C31.2729 11.4027 31.6076 11.264 31.9566 11.264H35.9046V7.316C35.9046 6.96698 36.0433 6.63225 36.2901 6.38545C36.5369 6.13865 36.8716 6 37.2206 6C37.5696 6 37.9044 6.13865 38.1512 6.38545C38.398 6.63225 38.5366 6.96698 38.5366 7.316V11.264H42.4846C42.8337 11.264 43.1684 11.4027 43.4152 11.6495C43.662 11.8963 43.8006 12.231 43.8006 12.58C43.8006 12.929 43.662 13.2638 43.4152 13.5106C43.1684 13.7574 42.8337 13.896 42.4846 13.896H38.5366V17.844C38.5366 18.193 38.398 18.5278 38.1512 18.7746C37.9044 19.0214 37.5696 19.16 37.2206 19.16C36.8716 19.16 36.5369 19.0214 36.2901 18.7746C36.0433 18.5278 35.9046 18.193 35.9046 17.844V13.896H31.9566C31.6076 13.896 31.2729 13.7574 31.0261 13.5106C30.7793 13.2638 30.6406 12.929 30.6406 12.58ZM52.574 23.108C52.574 23.4571 52.4353 23.7918 52.1885 24.0386C51.9417 24.2854 51.607 24.424 51.258 24.424H49.0646V26.6174C49.0646 26.9664 48.926 27.3011 48.6792 27.5479C48.4324 27.7947 48.0977 27.9334 47.7486 27.9334C47.3996 27.9334 47.0649 27.7947 46.8181 27.5479C46.5713 27.3011 46.4326 26.9664 46.4326 26.6174V24.424H44.2393C43.8903 24.424 43.5555 24.2854 43.3087 24.0386C43.062 23.7918 42.9233 23.4571 42.9233 23.108C42.9233 22.759 43.062 22.4243 43.3087 22.1775C43.5555 21.9307 43.8903 21.792 44.2393 21.792H46.4326V19.5987C46.4326 19.2497 46.5713 18.9149 46.8181 18.6681C47.0649 18.4213 47.3996 18.2827 47.7486 18.2827C48.0977 18.2827 48.4324 18.4213 48.6792 18.6681C48.926 18.9149 49.0646 19.2497 49.0646 19.5987V21.792H51.258C51.607 21.792 51.9417 21.9307 52.1885 22.1775C52.4353 22.4243 52.574 22.759 52.574 23.108Z" stroke="#4CAF50" mask="url(#path-1-outside-1_338_1301)"/>
</svg>
