<svg width="67" height="74" viewBox="0 0 67 74" fill="none" xmlns="http://www.w3.org/2000/svg">
<path d="M16.9929 36.646L19.3476 34.2914M24.0569 29.582L26.4116 27.2274M31.1209 22.518L33.4756 20.1634M33.4756 53.1287L35.8303 50.774M40.5396 46.0647L42.8943 43.71M47.6036 39.0007L49.9583 36.646M11.0733 23.6624L11.1062 23.6954C12.3552 24.9443 14.0492 25.646 15.8156 25.646C17.5819 25.646 19.2759 24.9443 20.5249 23.6954C21.7739 22.4464 22.4756 20.7524 22.4756 18.986C22.4756 17.2197 21.7739 15.5257 20.5249 14.2767L20.4872 14.2437L26.3763 8.35469C27.0008 7.73019 27.8478 7.37936 28.7309 7.37936C29.6141 7.37936 30.4611 7.73019 31.0856 8.35469L61.7316 39.0007C62.3561 39.6252 62.7069 40.4722 62.7069 41.3554C62.7069 42.2385 62.3561 43.0855 61.7316 43.71L55.8449 49.5967C54.5959 48.3477 52.9019 47.646 51.1356 47.646C49.3693 47.646 47.6753 48.3477 46.4263 49.5967C45.1773 50.8457 44.4756 52.5397 44.4756 54.306C44.4756 56.0724 45.1773 57.7664 46.4263 59.0154L40.5396 64.902C39.9151 65.5265 39.0681 65.8774 38.1849 65.8774C37.3018 65.8774 36.4548 65.5265 35.8303 64.902L5.18426 34.256C4.55976 33.6315 4.20892 32.7845 4.20892 31.9014C4.20892 31.0182 4.55976 30.1712 5.18426 29.5467L11.0733 23.6624Z" stroke="#4CAF50" stroke-width="3" stroke-linecap="round" stroke-linejoin="round"/>
</svg>
